REM DIRINDEX 1\5,1\2\6,1\2\7,1\3\8,1\3\9,1\4\10,1\4\11,1\4\12
REM DIRNAME cjc026,folder01,folder02,folder03,folder04,folder05,folder06,folder07,folder08,folder09,folder10,folder11
TITLE ""
FILE "EJE_DB3000_5th_3B_19.mp3" MP3
  TRACK 01 AUDIO
    TITLE "0:"
    INDEX 01 00:00:00
  TRACK 02 AUDIO
    TITLE "10:cjc026_08898"
    INDEX 01 00:00:08
  TRACK 03 AUDIO
    TITLE "0:"
    INDEX 01 00:01:38
  TRACK 04 AUDIO
    TITLE "11:cjc026_08899"
    INDEX 01 00:02:01
  TRACK 05 AUDIO
    TITLE "0:"
    INDEX 01 00:03:12
  TRACK 06 AUDIO
    TITLE "12:cjc026_08900"
    INDEX 01 00:03:47
  TRACK 07 AUDIO
    TITLE "0:"
    INDEX 01 00:05:00
  TRACK 08 AUDIO
    TITLE "10:cjc026_08901"
    INDEX 01 00:05:40
  TRACK 09 AUDIO
    TITLE "0:"
    INDEX 01 00:06:60
  TRACK 10 AUDIO
    TITLE "11:cjc026_08902"
    INDEX 01 00:07:25
  TRACK 11 AUDIO
    TITLE "0:"
    INDEX 01 00:08:58
  TRACK 12 AUDIO
    TITLE "12:cjc026_08903"
    INDEX 01 00:09:27
  TRACK 13 AUDIO
    TITLE "0:"
    INDEX 01 00:10:46
  TRACK 14 AUDIO
    TITLE "10:cjc026_08904"
    INDEX 01 00:11:09
  TRACK 15 AUDIO
    TITLE "0:"
    INDEX 01 00:12:28
  TRACK 16 AUDIO
    TITLE "11:cjc026_08905"
    INDEX 01 00:12:66
  TRACK 17 AUDIO
    TITLE "0:"
    INDEX 01 00:14:00
  TRACK 18 AUDIO
    TITLE "12:cjc026_08906"
    INDEX 01 00:14:35
  TRACK 19 AUDIO
    TITLE "0:"
    INDEX 01 00:15:54
  TRACK 20 AUDIO
    TITLE "10:cjc026_08907"
    INDEX 01 00:16:17
  TRACK 21 AUDIO
    TITLE "0:"
    INDEX 01 00:17:31
  TRACK 22 AUDIO
    TITLE "11:cjc026_08908"
    INDEX 01 00:17:66
  TRACK 23 AUDIO
    TITLE "0:"
    INDEX 01 00:18:72
  TRACK 24 AUDIO
    TITLE "12:cjc026_08909"
    INDEX 01 00:19:33
  TRACK 25 AUDIO
    TITLE "0:"
    INDEX 01 00:20:49
  TRACK 26 AUDIO
    TITLE "10:cjc026_08910"
    INDEX 01 00:21:09
  TRACK 27 AUDIO
    TITLE "0:"
    INDEX 01 00:22:26
  TRACK 28 AUDIO
    TITLE "11:cjc026_08911"
    INDEX 01 00:22:61
  TRACK 29 AUDIO
    TITLE "0:"
    INDEX 01 00:24:14
  TRACK 30 AUDIO
    TITLE "12:cjc026_08912"
    INDEX 01 00:24:49
  TRACK 31 AUDIO
    TITLE "0:"
    INDEX 01 00:25:66
  TRACK 32 AUDIO
    TITLE "10:cjc026_08913"
    INDEX 01 00:26:26
  TRACK 33 AUDIO
    TITLE "0:"
    INDEX 01 00:27:43
  TRACK 34 AUDIO
    TITLE "11:cjc026_08914"
    INDEX 01 00:28:08
  TRACK 35 AUDIO
    TITLE "0:"
    INDEX 01 00:29:33
  TRACK 36 AUDIO
    TITLE "12:cjc026_08915"
    INDEX 01 00:29:68
  TRACK 37 AUDIO
    TITLE "0:"
    INDEX 01 00:31:13
  TRACK 38 AUDIO
    TITLE "10:cjc026_08916"
    INDEX 01 00:31:48
  TRACK 39 AUDIO
    TITLE "0:"
    INDEX 01 00:32:67
  TRACK 40 AUDIO
    TITLE "11:cjc026_08917"
    INDEX 01 00:33:30
  TRACK 41 AUDIO
    TITLE "0:"
    INDEX 01 00:34:52
  TRACK 42 AUDIO
    TITLE "12:cjc026_08918"
    INDEX 01 00:35:12
  TRACK 43 AUDIO
    TITLE "0:"
    INDEX 01 00:36:29
  TRACK 44 AUDIO
    TITLE "10:cjc026_08919"
    INDEX 01 00:36:67
  TRACK 45 AUDIO
    TITLE "0:"
    INDEX 01 00:38:14
  TRACK 46 AUDIO
    TITLE "11:cjc026_08920"
    INDEX 01 00:38:52
  TRACK 47 AUDIO
    TITLE "0:"
    INDEX 01 00:40:21
  TRACK 48 AUDIO
    TITLE "12:cjc026_08921"
    INDEX 01 00:40:56
  TRACK 49 AUDIO
    TITLE "0:"
    INDEX 01 00:42:00
  TRACK 50 AUDIO
    TITLE "10:cjc026_08922"
    INDEX 01 00:42:38
  TRACK 51 AUDIO
    TITLE "0:"
    INDEX 01 00:43:60
  TRACK 52 AUDIO
    TITLE "11:cjc026_08923"
    INDEX 01 00:44:23
  TRACK 53 AUDIO
    TITLE "0:"
    INDEX 01 00:45:59
  TRACK 54 AUDIO
    TITLE "12:cjc026_08924"
    INDEX 01 00:46:19
  TRACK 55 AUDIO
    TITLE "0:"
    INDEX 01 00:47:41
  TRACK 56 AUDIO
    TITLE "10:cjc026_08925"
    INDEX 01 00:48:04
  TRACK 57 AUDIO
    TITLE "0:"
    INDEX 01 00:49:26
  TRACK 58 AUDIO
    TITLE "11:cjc026_08926"
    INDEX 01 00:49:64
  TRACK 59 AUDIO
    TITLE "0:"
    INDEX 01 00:50:73
  TRACK 60 AUDIO
    TITLE "12:cjc026_08927"
    INDEX 01 00:51:36
  TRACK 61 AUDIO
    TITLE "0:"
    INDEX 01 00:52:58
  TRACK 62 AUDIO
    TITLE "10:cjc026_08928"
    INDEX 01 00:53:21
  TRACK 63 AUDIO
    TITLE "0:"
    INDEX 01 00:54:48
  TRACK 64 AUDIO
    TITLE "11:cjc026_08929"
    INDEX 01 00:55:11
  TRACK 65 AUDIO
    TITLE "0:"
    INDEX 01 00:56:44
  TRACK 66 AUDIO
    TITLE "12:cjc026_08930"
    INDEX 01 00:57:07
  TRACK 67 AUDIO
    TITLE "0:"
    INDEX 01 00:58:34
